<?xml version="1.0" encoding="utf-8"?>
<svg xmlns="http://www.w3.org/2000/svg" viewBox="0 0 468 140">
  <path d="M 61.097 28.826 C 63.397 27.626 65.897 26.526 68.597 25.526 C 71.297 24.526 74.322 23.601 77.672 22.751 C 81.022 21.901 84.447 21.501 87.947 21.551 C 91.447 21.601 94.647 22.276 97.547 23.576 C 99.947 24.576 101.147 25.526 101.147 26.426 C 101.147 27.426 100.047 28.776 97.847 30.476 C 95.647 32.176 92.347 34.126 87.947 36.326 C 77.947 41.126 63.447 46.476 44.447 52.376 C 46.947 46.876 49.647 40.976 52.547 34.676 C 55.547 32.476 58.397 30.526 61.097 28.826 Z M 62.597 12.026 C 61.797 11.626 60.997 11.701 60.197 12.251 C 59.397 12.801 58.747 13.576 58.247 14.576 C 57.847 15.376 57.297 17.176 56.597 19.976 C 56.497 20.076 54.647 23.626 51.047 30.626 C 44.547 33.826 39.347 37.826 35.447 42.626 C 33.947 44.426 32.897 46.026 32.297 47.426 C 31.697 48.826 31.622 49.676 32.072 49.976 C 32.522 50.276 33.297 50.026 34.397 49.226 C 35.497 48.426 36.697 47.526 37.997 46.526 C 39.297 45.526 40.897 44.226 42.797 42.626 C 44.697 41.026 45.897 40.026 46.397 39.626 C 43.797 44.826 41.497 49.576 39.497 53.876 C 38.497 54.176 36.597 54.701 33.797 55.451 C 30.997 56.201 28.847 56.826 27.347 57.326 C 27.247 57.326 27.097 57.376 26.897 57.476 C 26.897 57.376 26.597 57.626 25.997 58.226 C 25.497 58.526 25.372 59.151 25.622 60.101 C 25.872 61.051 26.197 61.526 26.597 61.526 C 26.997 61.726 27.522 61.851 28.172 61.901 C 28.822 61.951 29.347 61.951 29.747 61.901 C 30.147 61.851 30.772 61.776 31.622 61.676 C 32.472 61.576 33.047 61.526 33.347 61.526 C 34.247 61.426 35.197 61.276 36.197 61.076 C 31.097 72.876 27.347 83.726 24.947 93.626 C 24.347 96.426 23.847 99.026 23.447 101.426 C 23.047 103.826 22.847 105.501 22.847 106.451 C 22.847 107.401 22.897 108.026 22.997 108.326 C 23.097 108.326 23.247 108.151 23.447 107.801 C 23.647 107.451 23.872 106.826 24.122 105.926 C 24.372 105.026 24.647 104.076 24.947 103.076 C 25.247 102.076 25.672 100.751 26.222 99.101 C 26.772 97.451 27.247 95.876 27.647 94.376 C 31.047 84.076 35.447 72.776 40.847 60.476 C 43.247 60.076 47.422 59.226 53.372 57.926 C 59.322 56.626 64.047 55.826 67.547 55.526 C 71.447 55.126 74.972 55.176 78.122 55.676 C 81.272 56.176 84.047 57.151 86.447 58.601 C 88.847 60.051 90.597 62.176 91.697 64.976 C 92.797 67.776 92.997 71.126 92.297 75.026 C 91.297 80.626 88.997 85.301 85.397 89.051 C 81.797 92.801 77.197 96.226 71.597 99.326 C 62.397 104.526 52.747 107.926 42.647 109.526 C 35.747 110.526 29.572 110.501 24.122 109.451 C 18.672 108.401 14.197 106.051 10.697 102.401 C 7.197 98.751 5.247 93.926 4.847 87.926 C 4.547 84.126 4.897 79.726 5.897 74.726 C 6.497 71.526 6.722 69.951 6.572 70.001 C 6.422 70.051 5.897 71.526 4.997 74.426 C 3.597 79.126 2.947 83.676 3.047 88.076 C 3.147 94.576 5.047 99.876 8.747 103.976 C 12.447 108.076 17.222 110.801 23.072 112.151 C 28.922 113.501 35.597 113.676 43.097 112.676 C 59.997 110.376 74.297 104.126 85.997 93.926 C 91.297 89.126 94.647 83.076 96.047 75.776 C 97.347 69.176 96.372 63.751 93.122 59.501 C 89.872 55.251 85.247 52.626 79.247 51.626 C 78.047 51.426 76.872 51.276 75.722 51.176 C 74.572 51.076 73.397 51.051 72.197 51.101 C 70.997 51.151 69.922 51.176 68.972 51.176 C 68.022 51.176 66.872 51.276 65.522 51.476 C 64.172 51.676 63.147 51.826 62.447 51.926 C 61.747 52.026 60.622 52.251 59.072 52.601 C 57.522 52.951 56.522 53.176 56.072 53.276 C 55.622 53.376 54.572 53.601 52.922 53.951 C 51.272 54.301 50.297 54.526 49.997 54.626 C 56.897 52.326 62.347 50.476 66.347 49.076 C 70.347 47.676 75.147 45.776 80.747 43.376 C 86.347 40.976 91.197 38.576 95.297 36.176 C 96.797 35.176 97.947 34.426 98.747 33.926 C 99.547 33.426 100.497 32.626 101.597 31.526 C 102.697 30.426 103.447 29.326 103.847 28.226 C 104.147 27.626 104.297 27.026 104.297 26.426 C 104.197 24.026 102.347 22.126 98.747 20.726 C 97.047 20.026 95.322 19.476 93.572 19.076 C 91.822 18.676 89.972 18.501 88.022 18.551 C 86.072 18.601 84.347 18.651 82.847 18.701 C 81.347 18.751 79.547 19.101 77.447 19.751 C 75.347 20.401 73.747 20.851 72.647 21.101 C 71.547 21.351 69.872 21.951 67.622 22.901 C 65.372 23.851 63.947 24.476 63.347 24.776 C 62.747 25.076 61.322 25.751 59.072 26.801 C 56.822 27.851 55.647 28.376 55.547 28.376 C 57.647 23.876 58.897 21.426 59.297 21.026 C 59.597 20.626 60.222 20.026 61.172 19.226 C 62.122 18.426 62.797 17.676 63.197 16.976 C 63.697 15.976 63.897 14.976 63.797 13.976 C 63.697 12.976 63.297 12.326 62.597 12.026 Z M 28.097 57.926 Z M 107.295 67.976 C 105.895 71.276 104.795 73.901 103.995 75.851 C 103.195 77.801 102.17 80.501 100.92 83.951 C 99.67 87.401 99.045 89.526 99.045 90.326 C 99.045 91.126 99.195 91.976 99.495 92.876 C 100.295 92.876 102.27 90.801 105.42 86.651 C 108.57 82.501 112.095 78.151 115.995 73.601 C 119.895 69.051 123.145 66.426 125.745 65.726 C 124.845 65.226 123.945 64.976 123.045 64.976 C 122.145 64.976 121.295 65.126 120.495 65.426 C 119.695 65.726 118.82 66.251 117.87 67.001 C 116.92 67.751 116.07 68.501 115.32 69.251 C 114.57 70.001 113.72 70.951 112.77 72.101 C 111.82 73.251 111.02 74.251 110.37 75.101 C 109.72 75.951 108.92 77.026 107.97 78.326 C 107.02 79.626 106.295 80.626 105.795 81.326 C 109.095 76.326 110.945 72.026 111.345 68.426 C 111.345 68.126 111.245 67.826 111.045 67.526 C 110.845 67.226 110.595 67.001 110.295 66.851 C 109.995 66.701 109.67 66.601 109.32 66.551 C 108.97 66.501 108.595 66.601 108.195 66.851 C 107.795 67.101 107.495 67.476 107.295 67.976 Z M 133.241 67.226 C 133.341 66.926 133.141 66.526 132.641 66.026 C 132.141 65.526 131.741 65.476 131.441 65.876 C 131.041 66.076 130.841 66.226 130.841 66.326 C 125.341 73.326 122.791 80.326 123.191 87.326 C 123.291 89.426 124.141 90.901 125.741 91.751 C 127.341 92.601 129.191 92.476 131.291 91.376 C 131.791 91.176 132.266 90.926 132.716 90.626 C 133.166 90.326 133.641 90.001 134.141 89.651 C 134.641 89.301 135.066 89.001 135.416 88.751 C 135.766 88.501 136.191 88.126 136.691 87.626 C 137.191 87.126 137.591 86.751 137.891 86.501 C 138.191 86.251 138.616 85.851 139.166 85.301 C 139.716 84.751 140.066 84.376 140.216 84.176 C 140.366 83.976 140.741 83.551 141.341 82.901 C 141.941 82.251 142.341 81.826 142.541 81.626 C 142.941 81.226 144.241 79.726 146.441 77.126 C 148.641 74.526 150.441 72.576 151.841 71.276 C 150.241 76.576 147.391 83.926 143.291 93.326 C 142.591 95.026 141.891 96.626 141.191 98.126 C 140.091 99.226 138.941 100.326 137.741 101.426 C 133.641 105.326 129.891 109.151 126.491 112.901 C 123.091 116.651 120.191 120.526 117.791 124.526 C 115.591 128.026 114.341 130.876 114.041 133.076 C 113.841 134.576 114.116 135.826 114.866 136.826 C 115.616 137.826 116.641 138.426 117.941 138.626 C 119.241 138.426 120.491 137.926 121.691 137.126 C 122.891 136.326 123.766 135.626 124.316 135.026 C 124.866 134.426 125.691 133.476 126.791 132.176 C 131.191 126.576 136.091 118.176 141.491 106.976 C 143.491 102.876 145.141 99.376 146.441 96.476 C 148.241 94.676 150.191 92.801 152.291 90.851 C 154.391 88.901 155.816 87.576 156.566 86.876 C 157.316 86.176 157.641 85.776 157.541 85.676 C 157.541 85.576 157.166 85.751 156.416 86.201 C 155.666 86.651 154.566 87.401 153.116 88.451 C 151.666 89.501 150.041 90.726 148.241 92.126 C 151.641 84.126 154.191 76.676 155.891 69.776 C 155.891 68.176 155.891 66.876 155.891 65.876 C 155.391 65.676 154.841 65.426 154.241 65.126 C 153.741 65.326 153.291 65.551 152.891 65.801 C 152.491 66.051 152.041 66.401 151.541 66.851 C 151.041 67.301 150.691 67.626 150.491 67.826 C 150.291 68.026 149.916 68.426 149.366 69.026 C 148.816 69.626 148.491 69.976 148.391 70.076 C 147.391 71.076 145.466 73.276 142.616 76.676 C 139.766 80.076 137.491 82.576 135.791 84.176 C 133.491 86.576 131.591 88.126 130.091 88.826 C 129.091 89.426 128.166 89.576 127.316 89.276 C 126.466 88.976 125.991 88.226 125.891 87.026 C 125.891 86.526 125.916 86.026 125.966 85.526 C 126.016 85.026 126.091 84.601 126.191 84.251 C 126.291 83.901 126.466 83.476 126.716 82.976 C 126.966 82.476 127.141 82.126 127.241 81.926 C 127.341 81.726 127.566 81.376 127.916 80.876 C 128.266 80.376 128.441 80.076 128.441 79.976 C 129.541 78.276 130.341 77.026 130.841 76.226 C 131.341 75.426 131.891 74.126 132.491 72.326 C 133.091 70.526 133.341 68.826 133.241 67.226 Z M 117.941 134.726 Z M 117.941 134.726 C 117.941 134.726 117.916 134.576 117.866 134.276 C 117.816 133.976 117.791 133.726 117.791 133.526 C 117.991 131.926 118.991 129.576 120.791 126.476 C 124.491 120.276 130.291 113.026 138.191 104.726 C 134.191 113.126 130.241 120.176 126.341 125.876 C 123.441 130.276 121.041 133.076 119.141 134.276 C 118.641 134.676 118.291 134.876 118.091 134.876 C 117.991 134.776 117.941 134.726 117.941 134.726 Z M 177.045 70.826 C 178.045 70.726 178.695 70.851 178.995 71.201 C 179.295 71.551 179.495 72.076 179.595 72.776 C 179.695 73.476 179.845 73.976 180.045 74.276 C 180.645 74.976 181.345 75.476 182.145 75.776 C 182.945 76.076 183.745 75.876 184.545 75.176 C 185.645 73.476 185.47 71.876 184.02 70.376 C 182.57 68.876 180.795 68.076 178.695 67.976 C 175.695 67.976 172.695 68.776 169.695 70.376 C 164.295 73.276 160.795 76.726 159.195 80.726 C 158.495 82.426 158.57 83.976 159.42 85.376 C 160.27 86.776 161.595 87.426 163.395 87.326 C 164.395 87.326 165.445 87.226 166.545 87.026 C 167.645 86.826 168.495 86.601 169.095 86.351 C 169.695 86.101 170.595 85.726 171.795 85.226 C 172.995 84.726 173.745 84.376 174.045 84.176 C 177.145 82.876 179.495 82.126 181.095 81.926 C 181.995 81.826 182.495 81.776 182.595 81.776 C 182.595 82.076 182.545 82.526 182.445 83.126 C 182.345 83.726 182.245 84.226 182.145 84.626 C 182.045 85.026 181.97 85.526 181.92 86.126 C 181.87 86.726 181.845 87.226 181.845 87.626 C 181.845 88.026 181.87 88.501 181.92 89.051 C 181.97 89.601 182.12 89.976 182.37 90.176 C 182.62 90.376 182.895 90.626 183.195 90.926 C 183.495 91.226 183.895 91.351 184.395 91.301 C 184.895 91.251 185.495 91.176 186.195 91.076 C 188.095 90.676 190.52 89.576 193.47 87.776 C 196.42 85.976 198.895 84.276 200.895 82.676 C 202.895 81.076 203.845 80.176 203.745 79.976 C 203.545 79.776 202.595 80.076 200.895 80.876 C 199.195 81.676 196.995 82.751 194.295 84.101 C 191.595 85.451 189.395 86.476 187.695 87.176 C 186.495 87.576 185.695 87.776 185.295 87.776 C 185.995 84.776 186.395 83.176 186.495 82.976 C 186.795 81.176 186.37 79.826 185.22 78.926 C 184.07 78.026 182.545 77.726 180.645 78.026 C 178.545 78.326 175.87 79.151 172.62 80.501 C 169.37 81.851 167.345 82.676 166.545 82.976 C 163.845 83.676 162.495 83.676 162.495 82.976 C 162.395 82.076 162.995 80.776 164.295 79.076 C 167.395 74.976 171.045 72.326 175.245 71.126 C 175.945 70.926 176.545 70.826 177.045 70.826 Z M 226.692 68.126 Z M 225.342 67.376 L 225.342 67.226 C 225.342 67.226 225.342 67.276 225.342 67.376 Z M 211.542 72.626 C 212.142 71.626 212.417 70.651 212.367 69.701 C 212.317 68.751 211.967 68.076 211.317 67.676 C 210.667 67.276 209.917 67.301 209.067 67.751 C 208.217 68.201 207.492 68.926 206.892 69.926 C 206.392 70.826 205.742 72.576 204.942 75.176 C 204.942 75.276 204.792 75.576 204.492 76.076 C 204.192 76.576 203.892 77.101 203.592 77.651 C 203.292 78.201 202.942 78.851 202.542 79.601 C 202.142 80.351 201.842 81.101 201.642 81.851 C 201.442 82.601 201.292 83.301 201.192 83.951 C 201.092 84.601 201.217 85.151 201.567 85.601 C 201.917 86.051 202.442 86.376 203.142 86.576 C 204.242 86.776 205.642 86.176 207.342 84.776 C 209.242 83.276 212.067 80.726 215.817 77.126 C 219.567 73.526 222.542 70.926 224.742 69.326 C 224.842 69.226 224.967 69.126 225.117 69.026 C 225.267 68.926 225.342 68.876 225.342 68.876 C 225.342 69.176 225.292 69.526 225.192 69.926 C 225.092 70.326 224.992 70.751 224.892 71.201 C 224.792 71.651 224.742 71.976 224.742 72.176 C 224.642 72.576 224.417 73.551 224.067 75.101 C 223.717 76.651 223.442 77.901 223.242 78.851 C 223.042 79.801 222.842 81.076 222.642 82.676 C 222.442 84.276 222.392 85.576 222.492 86.576 C 222.592 87.576 222.792 88.651 223.092 89.801 C 223.392 90.951 223.967 91.826 224.817 92.426 C 225.667 93.026 226.692 93.426 227.892 93.626 C 230.492 93.926 233.842 92.776 237.942 90.176 C 239.842 89.076 242.392 87.176 245.592 84.476 C 248.792 81.776 250.242 80.276 249.942 79.976 C 249.842 79.776 248.917 80.201 247.167 81.251 C 245.417 82.301 243.392 83.526 241.092 84.926 C 238.792 86.326 237.242 87.226 236.442 87.626 C 236.442 87.626 236.067 87.826 235.317 88.226 C 234.567 88.626 234.017 88.926 233.667 89.126 C 233.317 89.326 232.767 89.576 232.017 89.876 C 231.267 90.176 230.642 90.326 230.142 90.326 C 229.642 90.326 229.117 90.301 228.567 90.251 C 228.017 90.201 227.592 89.951 227.292 89.501 C 226.992 89.051 226.742 88.426 226.542 87.626 C 226.142 84.926 226.592 81.376 227.892 76.976 C 229.192 72.576 229.692 69.176 229.392 66.776 C 229.192 65.576 228.592 64.776 227.592 64.376 C 226.592 63.976 225.542 64.076 224.442 64.676 C 222.842 65.576 220.542 67.526 217.542 70.526 C 216.842 71.126 215.067 72.901 212.217 75.851 C 209.367 78.801 207.092 80.976 205.392 82.376 C 204.692 82.876 204.342 83.176 204.342 83.276 C 204.442 82.676 204.992 81.376 205.992 79.376 C 206.692 77.876 207.192 76.926 207.492 76.526 C 207.792 76.126 208.342 75.626 209.142 75.026 C 210.442 74.026 211.242 73.226 211.542 72.626 Z M 300.495 20.126 C 293.695 22.726 288.095 25.676 283.695 28.976 C 281.995 30.276 280.045 32.076 277.845 34.376 C 273.845 38.676 272.145 43.076 272.745 47.576 C 273.045 50.176 274.095 52.651 275.895 55.001 C 277.695 57.351 279.645 59.076 281.745 60.176 C 283.445 61.076 284.47 61.251 284.82 60.701 C 285.17 60.151 284.895 59.176 283.995 57.776 C 283.795 57.476 283.145 56.501 282.045 54.851 C 280.945 53.201 280.195 51.976 279.795 51.176 C 279.395 50.376 278.895 49.201 278.295 47.651 C 277.695 46.101 277.445 44.601 277.545 43.151 C 277.645 41.701 278.045 40.276 278.745 38.876 C 279.245 37.676 279.895 36.526 280.695 35.426 C 286.195 28.926 296.445 23.726 311.445 19.826 C 317.345 18.326 323.545 17.176 330.045 16.376 C 336.545 15.576 343.445 15.451 350.745 16.001 C 358.045 16.551 363.945 18.076 368.445 20.576 C 372.345 22.776 374.695 25.526 375.495 28.826 C 375.795 30.026 375.695 31.226 375.195 32.426 C 374.695 33.626 374.17 34.501 373.62 35.051 C 373.07 35.601 372.295 36.326 371.295 37.226 C 370.095 38.326 366.695 40.576 361.095 43.976 C 344.795 53.976 328.495 61.126 312.195 65.426 C 311.495 65.626 310.145 65.926 308.145 66.326 C 306.145 66.726 304.495 67.076 303.195 67.376 C 301.895 67.676 300.595 68.226 299.295 69.026 C 297.995 69.826 297.145 70.776 296.745 71.876 C 296.245 73.576 297.095 75.676 299.295 78.176 C 300.695 79.776 302.245 81.376 303.945 82.976 C 305.645 84.576 307.62 86.401 309.87 88.451 C 312.12 90.501 313.745 92.026 314.745 93.026 C 320.945 98.926 327.145 105.076 333.345 111.476 C 342.245 120.576 352.595 127.326 364.395 131.726 C 367.795 133.026 369.545 133.526 369.645 133.226 C 369.745 133.126 368.595 132.526 366.195 131.426 C 365.595 131.126 365.145 130.876 364.845 130.676 C 359.545 128.176 355.095 125.726 351.495 123.326 C 345.695 119.526 340.295 114.926 335.295 109.526 C 331.595 105.426 321.595 95.326 305.295 79.226 C 305.195 79.026 304.795 78.601 304.095 77.951 C 303.395 77.301 302.895 76.826 302.595 76.526 C 302.295 76.226 301.92 75.776 301.47 75.176 C 301.02 74.576 300.695 74.026 300.495 73.526 C 300.295 73.226 300.195 73.076 300.195 73.076 C 300.595 72.676 301.12 72.351 301.77 72.101 C 302.42 71.851 302.995 71.651 303.495 71.501 C 303.995 71.351 304.695 71.176 305.595 70.976 C 306.495 70.776 307.095 70.676 307.395 70.676 C 327.995 65.576 348.295 56.826 368.295 44.426 C 369.795 43.426 370.995 42.626 371.895 42.026 C 372.795 41.426 373.87 40.551 375.12 39.401 C 376.37 38.251 377.345 37.026 378.045 35.726 C 378.745 34.426 379.245 33.026 379.545 31.526 C 380.345 25.726 377.245 20.976 370.245 17.276 C 364.445 14.176 356.92 12.501 347.67 12.251 C 338.42 12.001 329.82 12.651 321.87 14.201 C 313.92 15.751 306.795 17.726 300.495 20.126 Z M 320.595 29.126 C 318.395 27.726 316.345 29.726 314.445 35.126 C 314.345 35.226 314.295 35.326 314.295 35.426 C 314.195 35.526 313.945 35.876 313.545 36.476 C 313.145 37.076 312.57 37.951 311.82 39.101 C 311.07 40.251 310.295 41.376 309.495 42.476 C 302.995 52.276 297.095 61.926 291.795 71.426 C 286.495 80.926 282.395 89.926 279.495 98.426 C 278.895 100.526 278.37 102.451 277.92 104.201 C 277.47 105.951 277.22 107.201 277.17 107.951 C 277.12 108.701 277.145 109.176 277.245 109.376 C 277.345 109.376 277.47 109.251 277.62 109.001 C 277.77 108.751 277.995 108.301 278.295 107.651 C 278.595 107.001 278.895 106.326 279.195 105.626 C 279.495 104.926 279.92 103.976 280.47 102.776 C 281.02 101.576 281.545 100.476 282.045 99.476 C 288.445 85.576 298.445 67.126 312.045 44.126 C 314.745 39.626 316.345 37.176 316.845 36.776 C 317.145 36.476 317.795 36.051 318.795 35.501 C 319.795 34.951 320.445 34.376 320.745 33.776 C 321.345 32.976 321.62 32.126 321.57 31.226 C 321.52 30.326 321.195 29.626 320.595 29.126 Z M 378.191 56.126 C 377.491 55.226 376.666 54.951 375.716 55.301 C 374.766 55.651 373.766 56.176 372.716 56.876 C 371.666 57.576 371.141 57.876 371.141 57.776 C 371.041 57.676 370.916 57.501 370.766 57.251 C 370.616 57.001 370.491 56.776 370.391 56.576 C 370.291 56.376 370.241 56.276 370.241 56.276 C 370.041 56.376 370.066 56.851 370.316 57.701 C 370.566 58.551 370.841 59.401 371.141 60.251 C 371.441 61.101 371.691 61.526 371.891 61.526 C 371.891 61.426 371.941 61.076 372.041 60.476 C 372.041 60.476 372.091 60.476 372.191 60.476 C 372.291 60.476 372.441 60.451 372.641 60.401 C 372.841 60.351 373.041 60.326 373.241 60.326 C 374.541 60.026 375.791 59.451 376.991 58.601 C 378.191 57.751 378.591 56.926 378.191 56.126 Z M 372.491 67.376 C 371.091 66.776 370.116 66.901 369.566 67.751 C 369.016 68.601 368.741 69.826 368.741 71.426 C 368.341 72.426 367.641 74.001 366.641 76.151 C 365.641 78.301 364.766 80.376 364.016 82.376 C 363.266 84.376 362.791 86.376 362.591 88.376 C 362.391 90.376 362.766 92.051 363.716 93.401 C 364.666 94.751 366.091 95.276 367.991 94.976 C 369.491 94.676 371.241 93.976 373.241 92.876 C 374.341 92.076 376.291 90.651 379.091 88.601 C 381.891 86.551 384.416 84.676 386.666 82.976 C 388.916 81.276 390.041 80.426 390.041 80.426 C 389.741 80.126 388.066 80.801 385.016 82.451 C 381.966 84.101 378.591 85.901 374.891 87.851 C 371.191 89.801 368.691 90.826 367.391 90.926 L 366.941 90.926 C 366.241 88.926 366.516 85.651 367.766 81.101 C 369.016 76.551 370.241 73.676 371.441 72.476 C 371.641 72.276 372.091 71.976 372.791 71.576 C 373.491 71.176 373.891 70.826 373.991 70.526 C 374.291 69.926 374.266 69.326 373.916 68.726 C 373.566 68.126 373.091 67.676 372.491 67.376 Z M 400.997 68.126 C 400.897 68.526 400.622 69.076 400.172 69.776 C 399.722 70.476 399.447 71.026 399.347 71.426 C 399.247 71.826 399.397 72.476 399.797 73.376 C 400.597 74.476 401.572 74.826 402.722 74.426 C 403.872 74.026 404.547 73.176 404.747 71.876 C 404.747 70.876 404.297 69.126 403.397 66.626 C 403.097 65.626 402.422 64.976 401.372 64.676 C 400.322 64.376 399.297 64.576 398.297 65.276 C 394.597 67.776 391.097 73.026 387.797 81.026 C 384.397 89.626 384.797 94.576 388.997 95.876 C 390.597 96.376 392.497 96.126 394.697 95.126 C 396.097 94.426 397.647 93.476 399.347 92.276 C 399.747 91.976 401.622 90.726 404.972 88.526 C 408.322 86.326 411.097 84.426 413.297 82.826 C 415.497 81.226 416.497 80.276 416.297 79.976 C 416.097 79.576 414.197 80.226 410.597 81.926 C 405.997 84.026 401.547 86.476 397.247 89.276 C 397.147 89.376 396.797 89.601 396.197 89.951 C 395.597 90.301 395.147 90.576 394.847 90.776 C 394.547 90.976 394.147 91.201 393.647 91.451 C 393.147 91.701 392.647 91.876 392.147 91.976 C 391.647 92.076 391.147 92.126 390.647 92.126 C 389.047 92.126 389.047 89.801 390.647 85.151 C 392.247 80.501 393.597 77.126 394.697 75.026 C 396.697 71.126 398.447 68.626 399.947 67.526 C 400.347 67.226 400.597 67.126 400.697 67.226 L 400.997 68.126 Z M 426.793 68.126 C 426.693 68.526 426.418 69.076 425.968 69.776 C 425.518 70.476 425.243 71.026 425.143 71.426 C 425.043 71.826 425.193 72.476 425.593 73.376 C 426.393 74.476 427.368 74.826 428.518 74.426 C 429.668 74.026 430.343 73.176 430.543 71.876 C 430.543 70.876 430.093 69.126 429.193 66.626 C 428.893 65.626 428.218 64.976 427.168 64.676 C 426.118 64.376 425.093 64.576 424.093 65.276 C 420.393 67.776 416.893 73.026 413.593 81.026 C 410.193 89.626 410.593 94.576 414.793 95.876 C 416.393 96.376 418.293 96.126 420.493 95.126 C 421.893 94.426 423.443 93.476 425.143 92.276 C 425.543 91.976 427.418 90.726 430.768 88.526 C 434.118 86.326 436.893 84.426 439.093 82.826 C 441.293 81.226 442.293 80.276 442.093 79.976 C 441.893 79.576 439.993 80.226 436.393 81.926 C 431.793 84.026 427.343 86.476 423.043 89.276 C 422.943 89.376 422.593 89.601 421.993 89.951 C 421.393 90.301 420.943 90.576 420.643 90.776 C 420.343 90.976 419.943 91.201 419.443 91.451 C 418.943 91.701 418.443 91.876 417.943 91.976 C 417.443 92.076 416.943 92.126 416.443 92.126 C 414.843 92.126 414.843 89.801 416.443 85.151 C 418.043 80.501 419.393 77.126 420.493 75.026 C 422.493 71.126 424.243 68.626 425.743 67.526 C 426.143 67.226 426.393 67.126 426.493 67.226 L 426.793 68.126 Z M 452.447 56.126 C 451.747 55.226 450.922 54.951 449.972 55.301 C 449.022 55.651 448.022 56.176 446.972 56.876 C 445.922 57.576 445.397 57.876 445.397 57.776 C 445.297 57.676 445.172 57.501 445.022 57.251 C 444.872 57.001 444.747 56.776 444.647 56.576 C 444.547 56.376 444.497 56.276 444.497 56.276 C 444.297 56.376 444.322 56.851 444.572 57.701 C 444.822 58.551 445.097 59.401 445.397 60.251 C 445.697 61.101 445.947 61.526 446.147 61.526 C 446.147 61.426 446.197 61.076 446.297 60.476 C 446.297 60.476 446.347 60.476 446.447 60.476 C 446.547 60.476 446.697 60.451 446.897 60.401 C 447.097 60.351 447.297 60.326 447.497 60.326 C 448.797 60.026 450.047 59.451 451.247 58.601 C 452.447 57.751 452.847 56.926 452.447 56.126 Z M 446.747 67.376 C 445.347 66.776 444.372 66.901 443.822 67.751 C 443.272 68.601 442.997 69.826 442.997 71.426 C 442.597 72.426 441.897 74.001 440.897 76.151 C 439.897 78.301 439.022 80.376 438.272 82.376 C 437.522 84.376 437.047 86.376 436.847 88.376 C 436.647 90.376 437.022 92.051 437.972 93.401 C 438.922 94.751 440.347 95.276 442.247 94.976 C 443.747 94.676 445.497 93.976 447.497 92.876 C 448.597 92.076 450.547 90.651 453.347 88.601 C 456.147 86.551 458.672 84.676 460.922 82.976 C 463.172 81.276 464.297 80.426 464.297 80.426 C 463.997 80.126 462.322 80.801 459.272 82.451 C 456.222 84.101 452.847 85.901 449.147 87.851 C 445.447 89.801 442.947 90.826 441.647 90.926 L 441.197 90.926 C 440.497 88.926 440.772 85.651 442.022 81.101 C 443.272 76.551 444.497 73.676 445.697 72.476 C 445.897 72.276 446.347 71.976 447.047 71.576 C 447.747 71.176 448.147 70.826 448.247 70.526 C 448.547 69.926 448.522 69.326 448.172 68.726 C 447.822 68.126 447.347 67.676 446.747 67.376 Z" style="fill: rgb(51, 51, 51); text-wrap-mode: nowrap;"/>
</svg>